<svg xmlns="http://www.w3.org/2000/svg" viewBox="0 0 396.809 151.056"><g style="isolation:isolate"><path d="M312.612 76.028h-5.073a.5.5 0 0 1 0-1h5.073a.5.5 0 0 1 0 1zm-10.145 0h-5.073a.5.5 0 0 1 0-1h5.073a.5.5 0 0 1 0 1zm-10.146 0h-5.073a.5.5 0 0 1 0-1h5.073a.5.5 0 0 1 0 1zm-10.145 0H277.1a.5.5 0 0 1 0-1h5.073a.5.5 0 0 1 0 1zm-162.328 0h-5.073a.5.5 0 0 1 0-1h5.073a.5.5 0 0 1 0 1zm-10.148 0h-5.07a.5.5 0 0 1 0-1h5.07a.5.5 0 0 1 0 1zm-10.143 0h-5.072a.5.5 0 0 1 0-1h5.073a.5.5 0 0 1 0 1zm-10.145 0h-5.073a.5.5 0 0 1 0-1h5.073a.5.5 0 0 1 0 1z" fill="#c1c1c1"/><path d="M41.244 115.269a39.737 39.737 0 1 1 28.1-11.64 39.79 39.79 0 0 1-28.1 11.64z" fill="#fff"/><path d="M61.051 101.238c-.024.141-.055.263-.086.392a41.495 41.495 0 0 1-1.04 3.708 17.673 17.673 0 0 1-2.239 4.779 6.562 6.562 0 0 1-1.383 1.432 5.958 5.958 0 0 1-3.72 1.132H29.75a5.933 5.933 0 0 1-3.848-1.23 6.71 6.71 0 0 1-1.254-1.334 17.675 17.675 0 0 1-2.239-4.779 41.495 41.495 0 0 1-1.04-3.708c-.031-.128-.061-.251-.086-.379C17.7 85.5 18.767 57.571 26.88 49.158c3.328-3.451 7.446-6.486 14.286-6.486a17.732 17.732 0 0 1 12.1 4.424 28.024 28.024 0 0 1 2.19 2.062 12.015 12.015 0 0 1 .8.93c7.377 9.374 8.252 35.946 4.795 51.15z" fill="#8f6642"/><path d="M47.384 98.806V91H35.147v7.8l-3.059 1.263 2.39 14.611a39.8 39.8 0 0 0 6.766.588 40.2 40.2 0 0 0 6.809-.589l2.39-14.61z" fill="#eed5b7"/><path fill="#eed5b7" style="mix-blend-mode:multiply" d="M35.147 91.054v4.06l12.237 3.692v-7.752H35.147z"/><path d="M33.377 110.265v4.219a40.061 40.061 0 0 0 15.729.011v-4.23z" fill="#f4b350"/><path d="M62.55 103.87c-4.376-4.2-9.682-5.016-14.145-5.063h-1.068v16a39.31 39.31 0 0 0 17.948-7.633 19.331 19.331 0 0 0-2.735-3.304zm-28.472-5.064c-4.463.048-9.769.864-14.145 5.063a19.327 19.327 0 0 0-2.723 3.282 39.549 39.549 0 0 0 17.937 7.649V98.806z" fill="#42404d"/><path d="M55.259 70.711v-6.363c0-6.758-7.824-15.3-14.017-15.3s-14.017 8.538-14.017 15.3v6.363a3.087 3.087 0 0 0-3.115 3.059v3.182a3.087 3.087 0 0 0 3.115 3.059c0 6.758 7.824 15.541 14.017 15.541s14.017-8.782 14.017-15.541a3.087 3.087 0 0 0 3.115-3.059v-3.181a3.087 3.087 0 0 0-3.115-3.06z" fill="#eed5b7"/><path d="M41.242 84.233v11.319c6.193 0 14.017-8.783 14.017-15.541a3.087 3.087 0 0 0 3.115-3.059v-3.181a3.087 3.087 0 0 0-3.115-3.059v-6.364c0-6.758-7.824-15.3-14.017-15.3v24.78a41.6 41.6 0 0 0-3.115 9.789z" fill="#f6ccb8" opacity=".8" style="mix-blend-mode:multiply"/><circle cx="33.594" cy="75.26" r="2.416" transform="rotate(-2 33.587 75.258)" fill="#f6ccb8" style="mix-blend-mode:multiply"/><circle cx="33.594" cy="74.648" r="2.416" transform="rotate(-2 33.597 74.656)" fill="#3c2417"/><circle cx="34.414" cy="73.894" r=".604" transform="rotate(-2 34.413 73.868)" fill="#fff"/><path d="M36.533 72.718a3.523 3.523 0 0 0-2.842-1.954 3.791 3.791 0 0 0-3.451 1.6.913.913 0 0 1-.183 0 1.793 1.793 0 0 1-.517-.137 2.389 2.389 0 0 1-.7-.474.079.079 0 0 0-.087-.015.076.076 0 0 0-.035.1 2.658 2.658 0 0 0 .139.256 2.487 2.487 0 0 0 .411.52 2.4 2.4 0 0 0 .57.409 1.866 1.866 0 0 0 .23.1c.057.02.118.032.108.03a.4.4 0 0 0 .392-.212 3.308 3.308 0 0 1 3.057-1.567 2.938 2.938 0 0 1 2.344 1.588.306.306 0 1 0 .562-.242z" fill="#3c2417"/><circle cx="48.89" cy="75.26" r="2.416" transform="rotate(-2 48.888 75.267)" fill="#f6ccb8" style="mix-blend-mode:multiply"/><circle cx="48.89" cy="74.648" r="2.416" transform="rotate(-2 48.898 74.665)" fill="#3c2417"/><circle cx="49.71" cy="73.894" r=".604" transform="rotate(-2 49.714 73.877)" fill="#fff"/><path d="M45.951 72.718a3.523 3.523 0 0 1 2.842-1.954 3.791 3.791 0 0 1 3.452 1.6.913.913 0 0 0 .183 0 1.793 1.793 0 0 0 .517-.137 2.388 2.388 0 0 0 .7-.474.079.079 0 0 1 .087-.015.075.075 0 0 1 .035.1 2.643 2.643 0 0 1-.139.256 2.489 2.489 0 0 1-.411.52 2.4 2.4 0 0 1-.57.409 1.874 1.874 0 0 1-.23.1c-.057.02-.118.032-.108.03a.4.4 0 0 1-.392-.212 3.308 3.308 0 0 0-3.057-1.567 2.938 2.938 0 0 0-2.344 1.588.306.306 0 1 1-.562-.242z" fill="#3c2417"/><path d="M46.115 86.9a4.647 4.647 0 0 1-4.895 4.351 4.647 4.647 0 0 1-4.895-4.351z" fill="#f05d44"/><path d="M37.087 86.9h8.158v1.02a.612.612 0 0 1-.612.612H37.7a.612.612 0 0 1-.612-.612V86.9h-.001z" fill="#fff"/><path d="M58.474 71.578l-10.927-2.447-.459-3.059-1.223 3.059h-9.484l-.918-6.73-1.224 6.73-10.531 1.836c-.829-11.83-.612-26.921 17.077-26.921s19.079 15.705 17.689 27.532z" fill="#8f6642"/><path d="M41.244 37.287A38.241 38.241 0 1 1 3 75.526a38.239 38.239 0 0 1 38.244-38.239m0-3a41.241 41.241 0 1 0 0 82.482 41.241 41.241 0 0 0 0-82.482z" fill="#616161"/><circle cx="198.475" cy="75.528" r="72.531" fill="#fff"/><path fill="#32303a" d="M181.254 122.416h34.299v14.548h-34.299z"/><path fill="#f2ae75" d="M216.822 126.783l-4.374-2.017v-13.904h-28.071v13.904l-4.392 1.895 1.17 15.432h34.497l1.17-15.31z"/><path fill="#f6ccb8" style="mix-blend-mode:multiply" d="M184.377 110.862v7.691l28.071 5.291v-12.982h-28.071z"/><path d="M217.215 126.874l-1.044 3.918c-1.8 5.17-6.432 13.626-17.419 13.626-12.4 0-17.125-10.766-18.592-15.43l-.563-2.114c-5.307 1.994-9 7.389-11.545 14.494a72.521 72.521 0 0 0 60.864-.009c-2.642-7.1-6.397-12.492-11.701-14.485z" fill="#fff"/><path d="M154.708 133.358a72.176 72.176 0 0 0 30.039 13.385l-5.155-20.863c-9 3.381-17.612 5.432-24.884 7.478zm57.347 13.411a72.179 72.179 0 0 0 30.145-13.382c-7.295-2.056-15.945-4.11-24.987-7.507z" fill="#32303a"/><path fill="#0c6a93" d="M205.16 142.487l-2.695 5.161h-8.2l-2.617-5.161 6.756-5.523 6.756 5.523z"/><path d="M198.405 136.965l-8.633 9.089-14.762-17.61 9.212-4.588 3.465 3.206zm14.188-13.105l-14.187 13.103 8.632 9.095 14.758-17.62-9.203-4.578z" fill="#e6e7e8"/><path d="M227.365 128.491l-11.812-6.075-5.259 24.668a71.99 71.99 0 0 0 15.738-4.46l.876-.72zm-57.922 0l.457 13.409.746.614a72 72 0 0 0 15.862 4.54l-5.254-24.642z" fill="#4f4c4d"/><path d="M229.6 69.374l.95-12.352c0-16.152-15.439-29.24-31.58-29.24s-31.58 13.088-31.58 29.24l.949 12.34a5.729 5.729 0 0 0-2.4 1.216 5.824 5.824 0 0 0-2.059 4.456v6.082a5.84 5.84 0 0 0 5.812 5.844c0 15.253 18.327 29.712 29.277 29.712s29.276-14.457 29.276-29.71a5.846 5.846 0 0 0 5.807-5.844v-6.082a5.838 5.838 0 0 0-4.452-5.662z" fill="#f2ae75"/><path d="M229.6 69.374l.95-12.352c0-16.152-15.439-29.24-31.58-29.24v41.521c-4.266 9.073-7.018 22.223-7.018 22.223h7.018v25.146c10.959 0 29.281-14.459 29.281-29.71a5.846 5.846 0 0 0 5.807-5.844v-6.082a5.838 5.838 0 0 0-4.458-5.662z" fill="#f6ccb8" opacity=".8" style="mix-blend-mode:multiply"/><circle cx="185.511" cy="72.835" r="4.619" transform="rotate(-2 185.465 72.809)" fill="#f6ccb8" style="mix-blend-mode:multiply"/><circle cx="185.511" cy="71.665" r="4.619" transform="rotate(-2 185.485 71.663)" fill="#3c2417"/><circle cx="187.079" cy="70.224" r="1.155" transform="rotate(-2 187.058 70.2)" fill="#fff"/><circle cx="212.412" cy="72.835" r="4.619" transform="rotate(-2 212.371 72.82)" fill="#f6ccb8" style="mix-blend-mode:multiply"/><circle cx="212.412" cy="71.665" r="4.619" transform="rotate(-2 211.749 71.451)" fill="#3c2417"/><circle cx="213.98" cy="70.224" r="1.155" transform="rotate(-2 213.935 70.21)" fill="#fff"/><path d="M231.87 64.51h-6.33a18.706 18.706 0 0 0-8.72-1.717c-6.517 0-10.941 1.249-13.211 3.688a8.613 8.613 0 0 0-8.949-.016c-2.275-2.428-6.692-3.672-13.195-3.672a18.706 18.706 0 0 0-8.72 1.717h-6.375v4.56l2.093.734a10.546 10.546 0 0 0-.3 2.558c0 5.666 1.379 13.2 13.3 13.2 10.65 0 13.444-6.553 14.773-12.962a7.741 7.741 0 0 0 .088-2.767 5.13 5.13 0 0 1 2.793-.623 5.06 5.06 0 0 1 2.835.648 7.755 7.755 0 0 0 .092 2.742c1.328 6.409 4.122 12.962 14.773 12.962 11.925 0 13.3-7.533 13.3-13.2a10.53 10.53 0 0 0-.306-2.573l2.051-.72zm-37.921 7.614c-1.381 6.661-4.031 11.1-12.482 11.1-9.636 0-10.965-5.22-10.965-10.86 0-1.789 0-7.23 10.965-7.23 7.565 0 10.547 1.712 11.716 3.149a4.4 4.4 0 0 1 .766 3.841zm22.871 11.1c-8.451 0-11.1-4.436-12.482-11.1a4.4 4.4 0 0 1 .767-3.843c1.169-1.437 4.151-3.149 11.716-3.149 10.965 0 10.965 5.442 10.965 7.23-.001 5.638-1.33 10.86-10.966 10.86z" fill="#32303a"/><path d="M213.085 98.751c-4.192-4.378-12.893-4.844-13.872-4.883h-.185c-.979.039-9.68.5-13.872 4.883a2.332 2.332 0 0 0-.65 1.638 71.091 71.091 0 0 0 1.16 12.018 2.333 2.333 0 0 0 .717.982 22.9 22.9 0 0 0 25.471 0 2.336 2.336 0 0 0 .72-.985 71.228 71.228 0 0 0 1.16-12.017 2.333 2.333 0 0 0-.649-1.636zm-4.651 11.335a27.389 27.389 0 0 1-6.394 2.169v-3.136a2.924 2.924 0 1 0-5.848 0v3.137a27.243 27.243 0 0 1-6.386-2.169c-.476-1.407-.383-4.948-.588-8.7 2.713-2.055 7.874-2.739 9.9-2.837 2.031.1 7.19.784 9.9 2.836-.201 3.734-.109 7.286-.584 8.7z" fill="#3c2415"/><path d="M199.12 17.684c-51.771.8-30.405 60.286-30.405 60.286s-2.673-32.589 11.036-30.594a130.092 130.092 0 0 0 19.369 1.607 130.09 130.09 0 0 0 19.369-1.607c13.709-1.995 11.036 30.594 11.036 30.594s21.366-59.49-30.405-60.286z" fill="#3c2417"/><path d="M198.474 151.056A75.528 75.528 0 1 1 274 75.527a75.614 75.614 0 0 1-75.526 75.529zm0-145.06a69.532 69.532 0 1 0 69.534 69.531A69.61 69.61 0 0 0 198.474 6z" fill="#616161"/><path d="M355.567 115.27a39.742 39.742 0 1 1 39.742-39.742 39.788 39.788 0 0 1-39.742 39.742z" fill="#fff"/><path fill="#32303a" d="M347.671 90.627h15.79v6.698h-15.79z"/><path fill="#bf8858" d="M364.046 92.637l-2.014-.928v-6.401h-12.923v6.401l-2.022.872.538 18.153h15.882l.539-18.097z"/><path fill="#f6ccb8" style="mix-blend-mode:multiply" d="M349.109 85.308v3.002l12.923 2.974v-5.976h-12.923z"/><path d="M364.226 92.679l-.48 1.8c-.831 2.38-2.961 6.273-8.019 6.273-5.707 0-7.884-4.956-8.559-7.1l-.259-.973c-5.1 1.916-6.961 10.646-7.531 19.13a39.6 39.6 0 0 0 32.629-.113c-.707-8.448-2.707-17.11-7.781-19.017z" fill="#fff"/><path d="M346.906 92.221c-8.639 3.246-16.5 3.832-19.607 7.286a5.661 5.661 0 0 0-1.408 2.418 39.663 39.663 0 0 0 26.678 13.22zm17.321 0l-5.664 22.924a39.663 39.663 0 0 0 26.678-13.221 5.658 5.658 0 0 0-1.407-2.417c-3.103-3.454-10.967-4.04-19.607-7.286z" fill="#32303a"/><path d="M353.661 102.81l-.376 12.39c.755.043 1.515.07 2.281.07s1.508-.026 2.255-.068l-.385-12.392zm5.016-2.943l-1.241 2.376h-3.775l-1.205-2.376 3.11-2.543 3.111 2.543z" fill="#96281b"/><path d="M355.567 97.324l-3.974 4.184L344.8 93.4l4.241-2.112 1.6 1.476zm6.532-6.033l-6.532 6.033 3.974 4.187 6.794-8.112-4.236-2.108z" fill="#e6e7e8"/><path d="M342.233 93.424l.21 6.175 3.084 2.537-2.4 3.28 5.189 9.18a39.624 39.624 0 0 0 4.587.575l-5.233-24.544zm23.372 8.711l3.084-2.537.211-6.175-5.438-2.8-5.233 24.544a39.652 39.652 0 0 0 4.587-.575l5.189-9.18z" fill="#4f4c4d"/><path d="M369.779 66.69l.438-5.69c0-7.436-7.108-13.462-14.538-13.462S341.14 53.567 341.14 61l.437 5.681a2.637 2.637 0 0 0-1.1.56 2.681 2.681 0 0 0-.948 2.052v2.8a2.689 2.689 0 0 0 2.676 2.691c0 7.022 8.437 13.679 13.478 13.679s13.478-6.656 13.478-13.678a2.691 2.691 0 0 0 2.673-2.69V69.3a2.687 2.687 0 0 0-2.055-2.61z" fill="#bf8858"/><path d="M369.779 66.69l.438-5.69c0-7.436-7.108-13.462-14.538-13.462v19.115a56.139 56.139 0 0 0-3.231 10.231h3.231v11.581c5.045 0 13.48-6.656 13.48-13.678a2.691 2.691 0 0 0 2.673-2.69V69.3a2.687 2.687 0 0 0-2.053-2.61z" fill="#f6ccb8" opacity=".8" style="mix-blend-mode:multiply"/><circle cx="349.484" cy="68.284" r="2.127" transform="rotate(-2 349.53 68.28)" fill="#f6ccb8" style="mix-blend-mode:multiply"/><circle cx="349.484" cy="67.745" r="2.127" transform="rotate(-2 349.539 67.764)" fill="#3c2417"/><circle cx="350.206" cy="67.082" r=".532" transform="rotate(-2 350.153 67.058)" fill="#fff"/><circle cx="361.868" cy="68.284" r="2.127" transform="rotate(-2 361.936 68.296)" fill="#f6ccb8" style="mix-blend-mode:multiply"/><circle cx="361.868" cy="67.745" r="2.127" transform="rotate(-2 361.917 67.75)" fill="#3c2417"/><circle cx="362.59" cy="67.082" r=".532" transform="rotate(-2 362.53 67.074)" fill="#fff"/><path d="M372.1 52.584a3 3 0 0 0-2.59-2.968 3.278 3.278 0 0 0-1.621-2.292c.01-.108.017-.217.017-.327a3.559 3.559 0 0 0-4.544-3.427 3.784 3.784 0 0 0-5-1.091 3.574 3.574 0 0 0-4.492.1 3.332 3.332 0 0 0-4.745 1.163 2.659 2.659 0 0 0-3.9 2.12c-.043.06-.089.116-.127.179a3.316 3.316 0 0 0-2.683 2.478 3.213 3.213 0 0 0-.241-.012 2.982 2.982 0 0 0-2.2 4.994 52.432 52.432 0 0 0 .573 15.13.538.538 0 0 0 1.062-.106c.153-4.037 1.091-11.748 5.153-11.157a59.89 59.89 0 0 0 8.917.74 59.891 59.891 0 0 0 8.917-.74c4.062-.591 5 7.12 5.153 11.157a.538.538 0 0 0 1.062.106 53.862 53.862 0 0 0 .688-14.242 2.982 2.982 0 0 0 .601-1.805z" fill="#3c2417"/><path d="M355.566 37.285a38.243 38.243 0 1 1-38.243 38.243 38.243 38.243 0 0 1 38.243-38.243m0-3a41.243 41.243 0 1 0 41.242 41.243 41.289 41.289 0 0 0-41.242-41.243z" fill="#616161"/></g></svg>