<svg xmlns="http://www.w3.org/2000/svg" xmlns:xlink="http://www.w3.org/1999/xlink" viewBox="0 0 972.448 474.612"><defs><linearGradient id="a" x1="832.812" y1="370.806" x2="919.889" y2="369.986" gradientUnits="userSpaceOnUse"><stop offset="0" stop-color="#5fc2d4"/><stop offset="1" stop-color="#54b5c4"/></linearGradient><linearGradient id="b" x1="832.822" y1="371.647" x2="919.897" y2="370.828" xlink:href="#a"/><linearGradient id="c" x1="852.218" y1="320.701" x2="892.218" y2="357.7" gradientUnits="userSpaceOnUse"><stop offset="0" stop-color="#f5ca3f"/><stop offset="1" stop-color="#eec02d"/></linearGradient><linearGradient id="d" x1="846.964" y1="355.382" x2="902.829" y2="355.382" gradientUnits="userSpaceOnUse"><stop offset="0" stop-color="#fff"/><stop offset="1" stop-color="#ebebeb"/></linearGradient><linearGradient id="e" x1="490.613" y1="437.491" x2="490.613" y2="149.335" gradientUnits="userSpaceOnUse"><stop offset="0" stop-color="#e8e8e8"/><stop offset="1" stop-color="#f1f1f1"/></linearGradient></defs><g style="isolation:isolate"><path d="M450.734 354.557H195.81a97.931 97.931 0 1 0 0 6h254.924a3 3 0 0 0 0-6zM97.93 449.487a91.93 91.93 0 1 1 91.93-91.931 92.034 92.034 0 0 1-91.93 91.931z" fill="#616161"/><path d="M145.93 370.407v-49a10.029 10.029 0 0 0-10-10h-60a10.029 10.029 0 0 0-10 10v49a10.029 10.029 0 0 0 10 10h38.824l29.176 16-7.022-16.05a10.033 10.033 0 0 0 9.022-9.95z" fill="#f5773e"/><path d="M145.93 370.407v-20.531l-23.63-20.161a9.946 9.946 0 0 0-6.371-2.308h-50v43a10.029 10.029 0 0 0 10 10h38.824l29.176 16-7.022-16.05a10.033 10.033 0 0 0 9.023-9.95z" fill="#7a7a7a" opacity=".6" style="mix-blend-mode:multiply"/><path d="M115.93 327.407h-56a10.029 10.029 0 0 0-10 10v44a10.029 10.029 0 0 0 10 10h1l-7 16 29.176-16h32.824a10.029 10.029 0 0 0 10-10v-44a10.029 10.029 0 0 0-10-10z" fill="#5bb9c9"/><path d="M106.2 347.492l-5.382-.666a10.926 10.926 0 0 0-19.618 5.485c0 .026 0-.027 0 0-.2 1.821-2.2 5.308-3.8 6.885a.771.771 0 0 1-.306.185 1.919 1.919 0 0 1-.383.029l-3.556-.4a3.215 3.215 0 0 0-1.075-.01c-.225.107-.418.351-.1.618a26.726 26.726 0 0 0 2.3 1.748c.131.087.258.163.389.247.57.37 1.133.706 1.685.994 9.819 5.2 16.4-1.148 16.724-1.473a.854.854 0 0 1 1.205 1.21 15.876 15.876 0 0 1-10.418 3.945 19.178 19.178 0 0 1-11.117-3.912 1.174 1.174 0 0 0-.518-.242 1.317 1.317 0 0 0-.54.042 10.83 10.83 0 0 1-.394.069c-1.912.292-4.01-.775-4.328-.019s2.191 2.192 3.422 3.528c2.874 3.12 7.422 7.448 14.8 8.2.092-.006.176-.018.267-.023v.688a5.675 5.675 0 0 0-1.638 1 1.025 1.025 0 1 0 1.384 1.512c.1-.091 2.435-2.17 5.6.079a1.025 1.025 0 0 0 1.188-1.67 7.6 7.6 0 0 0-2.434-1.174V373.3c13.264-3.446 13.454-18.559 13.454-18.559.011-.09.026-.763.025-.854a17.468 17.468 0 0 0-.17-2.349zm-8.235 2.719a1.834 1.834 0 1 1-1.638-2.011 1.834 1.834 0 0 1 1.634 2.01z" fill="#fff"/><path d="M379.838 293.549L252.275 165.977a98.634 98.634 0 1 0-4.243 4.243l127.563 127.571a3 3 0 0 0 4.243-4.242zM88.055 98.51a92.51 92.51 0 1 1 92.51 92.51 92.615 92.615 0 0 1-92.51-92.51z" fill="#616161"/><path d="M186.341 102.068h26.074l4.749 18.044a77.25 77.25 0 0 0-30.823 21.1z" fill="#5c5c5c"/><path d="M186.543 102.068h-26.074l-4.749 18.044a77.25 77.25 0 0 1 30.822 21.1z" fill="#858585"/><path fill="#737373" d="M186.342 112.097l65.185-25.071-65.185-21.102-65.394 20.893 65.394 25.28z"/><path d="M186.543 83.858c-2.183 0-4 .934-4.53 2.2l-35.27 6.718.523 6.738h.94l.313-5.484 33.83-5.928a5.419 5.419 0 0 0 4.195 1.637c2.6 0 4.7-1.315 4.7-2.938s-2.105-2.943-4.701-2.943z" fill="#e7b024"/><path d="M149.36 103.841s-.116-.006-.334-.01a2.458 2.458 0 0 0 .861-1.9 2.427 2.427 0 0 0-2.329-2.417c-.035 0-.068-.01-.1-.009a2.429 2.429 0 0 0-2.373 2.484 2.458 2.458 0 0 0 .906 1.876c-.219.01-.334.018-.334.018s-5.074 7.823-3.878 11.674c1.2.883 3.5 1.2 5.782 1.156h.1c2.313 0 4.663-.372 5.856-1.3 1.102-3.874-4.157-11.572-4.157-11.572z" fill="#d49800"/><path d="M784.446 0a98.457 98.457 0 0 0-71.709 165.978l-127.57 127.571a3 3 0 1 0 4.242 4.242l127.57-127.571A98.489 98.489 0 1 0 784.446 0zm0 191.02a92.51 92.51 0 1 1 92.511-92.51 92.615 92.615 0 0 1-92.511 92.51z" fill="#616161"/><path d="M815.509 84.454h-61.75a7.489 7.489 0 0 0-7.077 5.9l-8.972 49.2a4.836 4.836 0 0 0 4.923 5.9h84a4.836 4.836 0 0 0 4.924-5.9l-8.973-49.2a7.488 7.488 0 0 0-7.076-5.9z" fill="#838a8a"/><path d="M815.571 88.454a3.471 3.471 0 0 1 3.109 2.62l8.957 49.2a1.084 1.084 0 0 1-.147.889 1.108 1.108 0 0 1-.857.3h-84a.874.874 0 0 1-.988-1.185l8.972-49.2a3.509 3.509 0 0 1 3.142-2.62h61.812z" fill="#fff"/><path fill="#efefef" d="M823.041 137.454h-76.836l8.296-45.13h60.244l8.296 45.13z"/><path d="M803.047 94.146s-.514 9.552-.329 10.1.79.7 1.5 1.477 2.43 3.072 2.43 3.072a30.6 30.6 0 0 0 4.453 1.523c1.821.387 5.045.231 5-1.448-.04-1.631-2.335-3.644-3.143-6.063a9.183 9.183 0 0 1-.7-3.852c-.03-1.184.6-3.887-1-4.929-1.558-1.017-7.89-3.326-8.211.12zm-41.638-1.822a11 11 0 0 1 .333 1.023c.618 2.307 1.508 3.539 2.636 3.7s3.7.078 4.228-.312.527-2.65.786-3.6c.051-.186.138-.471.244-.8zm-9.309 25.701a4.523 4.523 0 0 1-2-1.8l-1.7 9.246c1.739-.789 5.712-2.947 6.577-4.936.906-2.06-1.042-2.06-2.877-2.51z" fill="#37bb9a"/><path d="M820.146 129.029a17.141 17.141 0 0 1-4.158-.81c-1.13-.346-6.991-5.092-6.991-5.092s-11.089.643-12.228 2.166a14.741 14.741 0 0 1-1.762 1.919l4.327 6.193c.487.7.494 1.474.009 1.729l-1.772.927c-.494.258-1.285-.118-1.761-.834l-3.935-5.914a3.261 3.261 0 0 1-.713.183c-1.854.234-5.568 2.87-6.11 2.748s-3.463-2.514-5.622-1.8c-1.935.636-14.189 5.85-16.92 7.014h60.529l-1.433-7.8a4.447 4.447 0 0 0-1.46-.629z" fill="#5bb9c9"/><path d="M821.033 126.531a14.95 14.95 0 0 0-2.985-.522 17.972 17.972 0 0 1-.979-.116 37.711 37.711 0 0 1-5.584-4.032 4.192 4.192 0 0 0-3.418-1.13c-1.278.1-9.524.77-11.294 1.274a6.291 6.291 0 0 0-2.938 2.028c-.677-.993-1.108-1.63-1.186-1.746-.354-.541-2.409-2.948-4.381-5.227l5.457-2.211L807 111.657l11.9 3.3-.306-1.664-11.485-3.143a1.315 1.315 0 0 0-.639-.018l-.143.033-5.42-5.536 1.167-12.3h-1.7l-1.118 9.988-8.224-.151a1.062 1.062 0 0 0-.467.08c-4.308 1.722-9.36 3.634-10.115 3.758a22.752 22.752 0 0 0-5.094 2.4 8.356 8.356 0 0 1-1.4-1.2c-.007-2.544-.062-14.142-.062-14.142l-4.527.216s-.1 2.421-.213 5.324c-2.2-.194-5.089-.439-6.131-.482a17.231 17.231 0 0 1-1.682-4.256 4.569 4.569 0 0 0-.423-1.529h-1.83a5.315 5.315 0 0 1 .528 1.687c-.026.9 1.017 3.211 1.512 4.253-2.052.253-5.506.754-7.926 1.113l-.232 1.26c4.541-.682 8.95-1.306 9.536-1.313s3.722.265 6.6.523c-.135 3.362-.283 7.014-.32 7.871a1.753 1.753 0 0 0 .3 1.094c-1.949.438-4.706 1-6.673 1.383l-10.6.7c-.183-.311-.368-.63-.553-.95l-.577 3.138a15.627 15.627 0 0 0 1.84 2.711 7.913 7.913 0 0 0 3.248 1.183 11.2 11.2 0 0 1 1.343.344 29.36 29.36 0 0 1 .662 6.414l-9.934 4.805-.422 2.3 12.811-6.294 20.87-5.527 1.784-.3c2.069 2.544 4.312 5.346 4.606 5.78.105.174.763 1.215 1.709 2.714-1.413.646-2.828 1.26-3.445 1.5l-.291.118-.092.038a8.371 8.371 0 0 1-.6-.444 6.647 6.647 0 0 0-6.4-.708l-23.072 9.726h5.47l18.545-7.954a4.2 4.2 0 0 1 3.912.414c1.217.98 1.855 1.327 3.228.751l.25-.1c.037-.014 1.761-.727 3.611-1.584l5.363 8.477H803a23284.99 23284.99 0 0 1-7.877-11.535 5.148 5.148 0 0 1 2.508-2.173c1.214-.351 7.282-.927 11.044-1.229a.767.767 0 0 0 .159-.023 1.433 1.433 0 0 1 1.146.479c.047.043 5.222 4.484 7 4.813.349.065.773.109 1.266.161a10.706 10.706 0 0 1 2.629.479c.108.054.308.173.567.333zm-40.365-9.179l-.113.024-20.578 5.374c-.323-6.125-1.019-6.58-1.287-6.752a6.764 6.764 0 0 0-2.024-.624 7.287 7.287 0 0 1-2.452-.792 15.039 15.039 0 0 1-1.526-2.234l9.7-.648c.058 0 .116-.013.174-.023 1.021-.2 5.021-1 7.568-1.607 1.424 1.406 4.381 3.632 10.575 7.276zm6.528-1.678c0-.222-.5-.414-.782-.566-3.454-1.887-7.155-4.075-9.608-5.722a24.276 24.276 0 0 1 3.973-2c1.282-.188 8.171-2.944 10.536-3.9l7.8.146-.115 1.017a.59.59 0 0 0 .182.468l5.271 5.5-11.5 2.726c-.056.014-.043.029-.094.049z" fill="#fff"/><path d="M773.148 71.606a11.486 11.486 0 0 1 11.486-11.484V47.461a24.1 24.1 0 0 0-21.793 34.494h-.037c7.6 17.545 21.83 34.5 21.83 34.5V83.093a11.487 11.487 0 0 1-11.486-11.487z" fill="#ff6047"/><path d="M808.78 71.606a24.145 24.145 0 0 0-24.145-24.146v12.662a11.485 11.485 0 0 1 0 22.971v33.361s14.223-16.954 21.827-34.5h-.037a24 24 0 0 0 2.355-10.348zm-35.203 0a11.058 11.058 0 0 1 11.058-11.058v-7.1a18.162 18.162 0 0 0 0 36.324v-7.108a11.058 11.058 0 0 1-11.058-11.058z" fill="#df413d"/><path d="M784.635 53.445v7.1a11.058 11.058 0 0 1 0 22.115v7.105a18.162 18.162 0 0 0 0-36.324z" fill="#ff6047"/><path d="M874.829 259.938a97.734 97.734 0 0 0-97.569 94.619H523.181a3 3 0 0 0 0 6H777.26a97.617 97.617 0 1 0 97.569-100.619zm0 189.238a91.619 91.619 0 1 1 91.619-91.619 91.723 91.723 0 0 1-91.619 91.619z" fill="#616161"/><path d="M921.829 394.465a8.309 8.309 0 0 1-8.356 8.289h-77.289a8.309 8.309 0 0 1-8.356-8.289v-48.91c0-3.663 2.371-6.771 5.666-6.591.844.046 82.078-.023 83.021-.007 3.11.052 5.312 3.068 5.312 6.6z" fill="#4c96a1"/><path d="M827.829 394.465a8.271 8.271 0 0 0 1.964 5.357l40.859-26.17-41.943-31.8a8.227 8.227 0 0 0-.88 3.7z" fill="url(#a)"/><path d="M920.075 394.465a8.267 8.267 0 0 1-1.965 5.357l-40.859-26.17 41.943-31.8a8.228 8.228 0 0 1 .881 3.7z" fill="url(#b)"/><path d="M830.066 340.127l39.876-31.7a8.839 8.839 0 0 1 5.221-1.635 9.6 9.6 0 0 1 5.223 1.635l39.324 31.807a1.556 1.556 0 0 1-.065 2.572l-39.26 31.555a8.846 8.846 0 0 1-5.221 1.635 9.6 9.6 0 0 1-5.223-1.635l-41.233-32.5a6.717 6.717 0 0 1 1.358-1.734z" fill="url(#c)"/><path fill="#b3b3b3" style="mix-blend-mode:multiply" d="M902.829 356.314V338.77h4.864l-.662 14.173-4.202 3.371z"/><path d="M875.165 375.994a8.846 8.846 0 0 0 5.221-1.635l22.443-18.045V334.77h-55.865v21.484l22.979 18.1a9.6 9.6 0 0 0 5.222 1.64z" fill="url(#d)"/><path fill="#f5773e" d="M859.829 344.77h30v4h-30zm0 10.001h30v3.999h-30z"/><path fill="#f6f7f9" d="M260.826 458.239h461.507v11.176H260.826z"/><path d="M491.579 469.414H260.826c3.69 5.2 16.533 5.2 21.115 5.2h419.277c4.581 0 17.425 0 21.115-5.2H491.579z" fill="#e0e2e0"/><path d="M457.006 458.239a6.781 6.781 0 0 0 6.758 6.663h55.629a6.781 6.781 0 0 0 6.758-6.663z" fill="#c9d3c9"/><path d="M679.607 458.091v-233.3a15.607 15.607 0 0 0-15.561-15.562H319.113a15.607 15.607 0 0 0-15.561 15.562v233.3z" fill="#616161"/><path fill="#c4d9e5" d="M321.344 224.975h340.471V442.35H321.344z"/><path d="M647.537 436.491H333.69a2.24 2.24 0 0 1-2.24-2.24V175.335h318.327v258.916a2.24 2.24 0 0 1-2.24 2.24z" fill="#fff"/><path d="M650.776 151.465a2.13 2.13 0 0 0-2.13-2.13H332.58a2.13 2.13 0 0 0-2.13 2.13v282.787a3.243 3.243 0 0 0 3.24 3.239h313.847a3.243 3.243 0 0 0 3.239-3.24zm-3.239 284.026H333.69a1.241 1.241 0 0 1-1.24-1.239V176.335h316.326v257.916a1.241 1.241 0 0 1-1.239 1.24z" fill="url(#e)"/><rect x="362.496" y="156.937" width="265.999" height="11.73" rx="1.982" ry="1.982" fill="#fff"/><path d="M626.513 168.917H364.478a2.235 2.235 0 0 1-2.232-2.232v-7.766a2.235 2.235 0 0 1 2.232-2.232h262.035a2.235 2.235 0 0 1 2.232 2.232v7.766a2.235 2.235 0 0 1-2.232 2.232zm-262.035-11.73a1.735 1.735 0 0 0-1.732 1.732v7.766a1.735 1.735 0 0 0 1.732 1.732h262.035a1.735 1.735 0 0 0 1.732-1.732v-7.766a1.735 1.735 0 0 0-1.732-1.732z" fill="gray"/><circle cx="339.444" cy="162.835" r="2.507" fill="#b3b3b3"/><circle cx="346.227" cy="162.835" r="2.507" fill="#b3b3b3"/><circle cx="352.813" cy="162.835" r="2.507" fill="#b3b3b3"/><path fill="#b3b3b3" d="M636.703 159.239h6.635v1.475h-6.635zm0 2.801h6.635v1.474h-6.635zm0 2.851h6.635v1.474h-6.635zm-265.293-.873a2.531 2.531 0 1 1-1.344-3.317c.029.012.051.034.079.048l-.5 1.182 3.16-.33-1.961-2.5-.5 1.187c-.028-.013-.05-.035-.079-.047a3.03 3.03 0 1 0 1.8 3.335l-.492-.09a2.543 2.543 0 0 1-.163.532zm-40.96 12.066h320.326v.5H330.45z"/><path fill="#939393" d="M425.311 209.069h197.584v4.467H425.311zm0 8.985h197.584v4.467H425.311zm0 8.984h197.584v4.467H425.311zm0 8.984h197.584v4.467H425.311zm0 8.985h115.456v4.467H425.311zm-66.979 26.926h264.563v4.635H358.332zm0 9.322h264.563v4.635H358.332zm0 9.321h264.563v4.635H358.332zm0 9.322h264.563v4.635H358.332zm0 9.322h154.594v4.635H358.332zm0 17.587h264.563v4.635H358.332zm0 9.322h264.563v4.635H358.332zm0 9.322h264.563v4.635H358.332zm0 9.321h264.563v4.635H358.332zm0 17.449h264.563v4.635H358.332zm0 9.321h264.563v4.635H358.332zm0 9.322h264.563v4.635H358.332zm0 9.322h264.563v4.635H358.332z"/><path fill="#32303a" d="M380.015 243.782h11.655v4.943h-11.655z"/><path fill="#f2ae75" d="M392.101 245.266l-1.486-.686v-4.724h-9.538v4.724l-1.493.644.398 10.399h11.722l.397-10.357z"/><path fill="#f6ccb8" style="mix-blend-mode:multiply" d="M381.077 239.856v2.613l9.538 1.798v-4.411h-9.538z"/><path d="M397.877 258.263c-.6-5.88-2.11-11.639-5.642-12.966l-.355 1.331c-.613 1.757-2.186 4.63-5.919 4.63-4.212 0-5.819-3.658-6.317-5.243l-.191-.718c-3.532 1.327-4.959 7.086-5.47 12.966z" fill="#fff"/><path d="M408.826 258.263c-.318-1.922-.638-3.789-.947-5.6a4.236 4.236 0 0 0-1.173-2.33c-2.29-2.55-8.095-2.982-14.471-5.378l-3.287 13.3zm-26.089 0l-3.287-13.3c-6.377 2.4-12.181 2.828-14.471 5.378a4.237 4.237 0 0 0-1.173 2.33c-.309 1.807-.628 3.674-.947 5.6z" fill="#32303a"/><path fill="#0c6a93" d="M387.393 258.263l-.17-5.489h-2.786l-.167 5.489h3.123zm.745-7.661l-.915 1.753h-2.786l-.89-1.753 2.296-1.877 2.295 1.877z"/><path d="M385.843 248.725l-2.933 3.088-5.016-5.984 3.13-1.559 1.178 1.09z" fill="#e6e7e8"/><path fill="#e6e7e8" d="M390.664 244.272l-4.821 4.453 2.934 3.09 5.014-5.987-3.127-1.556z"/><path fill="#4f4c4d" d="M393.008 258.263l2.015-3.566-1.771-2.421 2.276-1.872.156-4.558-4.014-2.064-3.087 14.481h4.425zm-14.575-5.987l-1.771 2.421 2.016 3.566h4.425l-3.087-14.481-4.014 2.064.155 4.558 2.276 1.872z"/><path d="M396.442 225.758l.323-4.2c0-5.488-5.246-9.936-10.731-9.936s-10.731 4.447-10.731 9.936l.323 4.193a1.947 1.947 0 0 0-.815.413 1.979 1.979 0 0 0-.7 1.514v2.067a1.985 1.985 0 0 0 1.975 1.986c0 5.183 6.227 10.1 9.948 10.1s9.948-4.912 9.948-10.1a1.986 1.986 0 0 0 1.973-1.986v-2.067a1.984 1.984 0 0 0-1.513-1.92z" fill="#f2ae75"/><path d="M396.442 225.758l.323-4.2c0-5.488-5.246-9.936-10.731-9.936v14.109a41.434 41.434 0 0 0-2.385 7.551h2.385v8.545c3.724 0 9.95-4.913 9.95-10.1a1.986 1.986 0 0 0 1.973-1.986v-2.067a1.984 1.984 0 0 0-1.515-1.916z" fill="#f6ccb8" opacity=".8" style="mix-blend-mode:multiply"/><circle cx="381.462" cy="226.934" r="1.57" transform="rotate(-2 381.375 226.89)" fill="#f6ccb8" style="mix-blend-mode:multiply"/><circle cx="381.462" cy="226.537" r="1.57" transform="rotate(-2 381.382 226.488)" fill="#3c2417"/><circle cx="381.995" cy="226.047" r=".392" transform="rotate(-2 381.934 226.01)" fill="#fff"/><circle cx="390.603" cy="226.934" r="1.57" transform="rotate(-2 390.515 226.877)" fill="#f6ccb8" style="mix-blend-mode:multiply"/><circle cx="390.603" cy="226.537" r="1.57" transform="rotate(-2 390.522 226.505)" fill="#3c2417"/><circle cx="391.136" cy="226.047" r=".392" transform="rotate(-2 391.075 225.998)" fill="#fff"/><path d="M397.214 224.106h-2.151a6.356 6.356 0 0 0-2.963-.584c-2.215 0-3.718.424-4.489 1.253a2.927 2.927 0 0 0-3.041-.006c-.773-.825-2.274-1.248-4.483-1.248a6.356 6.356 0 0 0-2.963.584h-2.166v1.549l.711.249a3.583 3.583 0 0 0-.1.869c0 1.925.469 4.485 4.521 4.485 3.619 0 4.568-2.227 5.02-4.4a2.63 2.63 0 0 0 .03-.94 1.743 1.743 0 0 1 .949-.212 1.719 1.719 0 0 1 .963.22 2.635 2.635 0 0 0 .031.932c.451 2.178 1.4 4.4 5.02 4.4 4.052 0 4.521-2.56 4.521-4.485a3.578 3.578 0 0 0-.1-.874l.7-.244zm-12.885 2.587c-.469 2.263-1.37 3.771-4.241 3.771-3.274 0-3.726-1.774-3.726-3.69 0-.608 0-2.457 3.726-2.457 2.57 0 3.584.582 3.981 1.07a1.5 1.5 0 0 1 .26 1.306zm7.772 3.771c-2.872 0-3.772-1.507-4.241-3.771a1.5 1.5 0 0 1 .261-1.306c.4-.488 1.41-1.07 3.981-1.07 3.726 0 3.726 1.849 3.726 2.457-.002 1.916-.453 3.69-3.728 3.69z" fill="#32303a"/><path d="M390.831 235.741c-1.424-1.488-4.381-1.646-4.714-1.659h-.063c-.333.013-3.289.172-4.714 1.659a.792.792 0 0 0-.221.557 24.156 24.156 0 0 0 .394 4.084.793.793 0 0 0 .244.334 7.782 7.782 0 0 0 8.655 0 .794.794 0 0 0 .244-.335 24.2 24.2 0 0 0 .394-4.083.793.793 0 0 0-.219-.557zm-1.58 3.852a9.307 9.307 0 0 1-2.173.737v-1.066a.994.994 0 1 0-1.987 0v1.066a9.257 9.257 0 0 1-2.17-.737 19.345 19.345 0 0 1-.2-2.957 6.355 6.355 0 0 1 6.73 0 19.483 19.483 0 0 1-.2 2.956z" fill="#3c2415"/><path d="M386.086 208.194c-17.592.27-10.332 20.485-10.332 20.485s-.908-11.073 3.75-10.4a39.929 39.929 0 0 0 13.163 0c4.658-.678 3.75 10.4 3.75 10.4s7.261-20.214-10.331-20.485z" fill="#3c2417"/><path d="M413.354 258.763h-55.022v-55.022h55.022zm-54.022-1h53.022v-53.022h-53.022z" fill="#aaa"/></g></svg>