<svg xmlns="http://www.w3.org/2000/svg" viewBox="0 0 407 228.057"><g style="isolation:isolate"><path d="M285.137 22.683H1.863V142.4a3.794 3.794 0 0 0 3.79 3.79h275.694a3.794 3.794 0 0 0 3.79-3.79V22.683z" fill="#fff"/><path d="M282.011 0H4.989A4.989 4.989 0 0 0 0 4.989V142.4a5.659 5.659 0 0 0 5.653 5.653h275.694A5.659 5.659 0 0 0 287 142.4V4.989A4.989 4.989 0 0 0 282.011 0zm1.326 142.4a1.992 1.992 0 0 1-1.99 1.99H5.653a1.992 1.992 0 0 1-1.99-1.99V24.483h279.674z" fill="#eaeaea"/><rect x="28.682" y="6.804" width="238.081" height="10.499" rx="4.641" ry="4.641" fill="#fff"/><path d="M262.122 17.553H33.324a4.9 4.9 0 0 1-4.892-4.892v-1.216a4.9 4.9 0 0 1 4.892-4.891h228.8a4.9 4.9 0 0 1 4.892 4.891v1.216a4.9 4.9 0 0 1-4.894 4.892zm-228.8-10.5a4.4 4.4 0 0 0-4.392 4.391v1.216a4.4 4.4 0 0 0 4.392 4.392h228.8a4.4 4.4 0 0 0 4.392-4.392v-1.215a4.4 4.4 0 0 0-4.392-4.391z" fill="gray"/><circle cx="8.05" cy="12.083" r="2.244" fill="#b3b3b3"/><circle cx="14.121" cy="12.083" r="2.244" fill="#b3b3b3"/><circle cx="20.016" cy="12.083" r="2.244" fill="#b3b3b3"/><path fill="#b3b3b3" d="M274.11 8.864h5.939v1.32h-5.939zm0 2.508h5.939v1.32h-5.939zm0 2.551h5.939v1.32h-5.939zm-237.605-.894a2.1 2.1 0 1 1-2.717-2.76 2.072 2.072 0 0 1 1.521-.013l-.394.931 2.828-.3-1.755-2.233-.372.878a2.877 2.877 0 1 0 1.794 3.2l-.772-.142a2.1 2.1 0 0 1-.133.439zM0 23.483h287v1.001H0z"/><path fill="#c1c1c1" d="M79.548 42.606h96.862v3.998H79.548z"/><path fill="#d5464e" d="M79.548 52.881h55.717v3.998H79.548z"/><path fill="#c1c1c1" d="M79.548 58.932h55.717v3.998H79.548zm0 6.135h55.717v3.998H79.548zm0 6.134h170.069v3.998H79.548zm0 6.034h164.858v3.998H79.548zm0 6.052h170.069v3.998H79.548zm0 6.052h141.714v3.998H79.548z"/><path fill="#00af41" d="M20.359 99.446h7.391v7.391h-7.391z"/><path fill="#06357a" d="M29.893 99.446h7.391v7.391h-7.391zm9.684 0h7.391v7.391h-7.391zm9.302 0h7.391v7.391h-7.391zm9.302 0h7.391v7.391h-7.391z"/><path fill="#f2f2f2" d="M273.172 109.924H13.835v3h104.628v18.442h2v-18.442h45.602v18.442h2v-18.442h105.107v-3z"/><path fill="#c1c1c1" d="M80.605 119.941h32.688v3.998H80.605zm46.893 0h32.688v3.998h-32.688zm46.893 0h32.688v3.998h-32.688z"/><path fill="#eaeaea" d="M20.359 41.892h55.35v55.35h-55.35z"/><path fill="#32303a" d="M42.211 79.229h10.684v4.532H42.211z"/><path fill="#f2ae75" d="M43.183 75.63h8.744v11.088h-8.744z"/><path fill="#f6ccb8" style="mix-blend-mode:multiply" d="M43.183 75.63v2.396l8.745 1.648V75.63h-8.745z"/><path d="M58.883 97.242c-.184-6.627-1.269-15.045-5.47-16.624l-.325 1.22a5.709 5.709 0 0 1-5.426 4.245c-3.861 0-5.334-3.354-5.792-4.807l-.175-.659c-4.2 1.579-5.159 10-5.239 16.624z" fill="#fff"/><path fill="#0c6a93" d="M49.657 85.481l-.839 1.608h-2.554l-.816-1.608 2.105-1.72 2.104 1.72zm-.536 11.761l-.303-9.769h-2.554l-.297 9.769h3.154z"/><path fill="#e6e7e8" d="M47.553 83.761l-2.689 2.831-4.598-5.485 2.869-1.429 4.418 4.083zm4.42-4.082l-4.42 4.082 2.689 2.833 4.598-5.489-2.867-1.426z"/><path d="M69.375 97.242a534.429 534.429 0 0 0-1.621-9.867 3.884 3.884 0 0 0-1.075-2.136c-2.1-2.337-7.421-2.734-13.267-4.93l-4.183 16.933zm-23.499 0l-4.183-16.934c-5.846 2.2-11.167 2.593-13.267 4.93a3.884 3.884 0 0 0-1.075 2.136c-.531 3.1-1.095 6.409-1.62 9.867z" fill="#32303a"/><path fill="#4f4c4d" d="M40.76 87.016l-1.624 2.22 4.526 8.006h2.389l-3.84-18.013-3.68 1.893.143 4.178 2.086 1.716zm10.684 10.226l4.525-8.006-1.624-2.22 2.087-1.716.142-4.178-3.679-1.893-3.84 18.013h2.389z"/><path d="M57.269 62.706l.3-3.848c0-5.032-4.809-9.109-9.837-9.109s-9.837 4.077-9.837 9.109l.3 3.844a1.785 1.785 0 0 0-.747.379 1.814 1.814 0 0 0-.641 1.388v1.895a1.819 1.819 0 0 0 1.81 1.821c0 4.751 5.709 9.255 9.12 9.255s9.12-4.5 9.12-9.255a1.821 1.821 0 0 0 1.809-1.82V64.47a1.818 1.818 0 0 0-1.397-1.764z" fill="#f2ae75"/><path d="M57.269 62.706l.3-3.848c0-5.032-4.809-9.109-9.837-9.109v12.934a37.985 37.985 0 0 0-2.186 6.923h2.186v7.834c3.414 0 9.121-4.5 9.121-9.255a1.821 1.821 0 0 0 1.809-1.82V64.47a1.818 1.818 0 0 0-1.393-1.764z" fill="#f6ccb8" opacity=".8" style="mix-blend-mode:multiply"/><circle cx="43.537" cy="63.784" r="1.439" transform="rotate(-2 43.53 63.77)" fill="#f6ccb8" style="mix-blend-mode:multiply"/><circle cx="43.537" cy="63.42" r="1.439" transform="rotate(-2 43.536 63.397)" fill="#3c2417"/><circle cx="44.025" cy="62.971" r=".36" transform="rotate(-2 44.03 62.947)" fill="#fff"/><circle cx="51.916" cy="63.784" r="1.439" transform="rotate(-2 51.896 63.772)" fill="#f6ccb8" style="mix-blend-mode:multiply"/><circle cx="51.916" cy="63.42" r="1.439" transform="rotate(-2 51.903 63.4)" fill="#3c2417"/><circle cx="52.405" cy="62.971" r=".36" transform="rotate(-2 52.398 62.95)" fill="#fff"/><path d="M57.978 61.191h-1.972a5.827 5.827 0 0 0-2.716-.535c-2.03 0-3.408.389-4.115 1.149a2.683 2.683 0 0 0-2.788-.005c-.709-.756-2.085-1.144-4.11-1.144a5.827 5.827 0 0 0-2.716.535h-1.987v1.42l.652.229a3.285 3.285 0 0 0-.094.8c0 1.765.43 4.112 4.144 4.112 3.318 0 4.188-2.041 4.6-4.038a2.411 2.411 0 0 0 .028-.862 1.6 1.6 0 0 1 .87-.194 1.576 1.576 0 0 1 .883.2 2.416 2.416 0 0 0 .029.854c.414 2 1.284 4.038 4.6 4.038 3.715 0 4.144-2.347 4.144-4.112a3.28 3.28 0 0 0-.1-.8l.639-.224zm-11.813 2.372c-.43 2.075-1.256 3.457-3.888 3.457-3 0-3.416-1.626-3.416-3.383 0-.557 0-2.252 3.416-2.252 2.357 0 3.285.533 3.649.981a1.37 1.37 0 0 1 .239 1.197zm7.125 3.457c-2.633 0-3.458-1.382-3.888-3.457a1.37 1.37 0 0 1 .239-1.2c.364-.448 1.293-.981 3.649-.981 3.416 0 3.416 1.7 3.416 2.252-.001 1.76-.415 3.386-3.416 3.386z" fill="#32303a"/><path d="M52.126 71.857c-1.306-1.364-4.016-1.509-4.321-1.521h-.058c-.3.012-3.015.157-4.321 1.521a.726.726 0 0 0-.2.51 22.145 22.145 0 0 0 .362 3.744.727.727 0 0 0 .223.306 8.1 8.1 0 0 0 3.966 1.205 8.123 8.123 0 0 0 3.968-1.2.728.728 0 0 0 .224-.307 22.188 22.188 0 0 0 .362-3.743.727.727 0 0 0-.205-.515zm-1.449 3.531a8.532 8.532 0 0 1-1.992.676v-.977a.911.911 0 1 0-1.822 0v.977a8.487 8.487 0 0 1-1.989-.676 17.734 17.734 0 0 1-.183-2.711 5.826 5.826 0 0 1 6.169 0 17.861 17.861 0 0 1-.183 2.711z" fill="#3c2415"/><path d="M47.776 46.6c-16.127.252-9.476 18.784-9.476 18.784s-.833-10.152 3.438-9.53a40.525 40.525 0 0 0 6.034.5 40.524 40.524 0 0 0 6.034-.5c4.271-.621 3.438 9.53 3.438 9.53S63.9 46.852 47.776 46.6z" fill="#3c2417"/><path d="M13.289 36.222V132.6h260.422V36.222zM271.711 130.6H15.289V38.222h256.422z" fill="#06357a"/><path d="M405.137 102.683H121.863V222.4a3.794 3.794 0 0 0 3.79 3.79h275.694a3.794 3.794 0 0 0 3.79-3.79V102.683z" fill="#fff"/><path d="M402.011 80H124.989A4.989 4.989 0 0 0 120 84.989V222.4a5.659 5.659 0 0 0 5.653 5.653h275.694A5.659 5.659 0 0 0 407 222.4V84.989A4.989 4.989 0 0 0 402.011 80zm1.326 142.4a1.992 1.992 0 0 1-1.99 1.99H125.653a1.992 1.992 0 0 1-1.99-1.99V104.483h279.674z" fill="#eaeaea"/><rect x="148.682" y="86.804" width="238.081" height="10.499" rx="4.641" ry="4.641" fill="#fff"/><path d="M382.122 97.553h-228.8a4.9 4.9 0 0 1-4.892-4.892v-1.216a4.9 4.9 0 0 1 4.892-4.891h228.8a4.9 4.9 0 0 1 4.892 4.891v1.216a4.9 4.9 0 0 1-4.892 4.892zm-228.8-10.5a4.4 4.4 0 0 0-4.392 4.391v1.216a4.4 4.4 0 0 0 4.392 4.392h228.8a4.4 4.4 0 0 0 4.392-4.392v-1.215a4.4 4.4 0 0 0-4.392-4.391z" fill="gray"/><circle cx="128.05" cy="92.083" r="2.244" fill="#b3b3b3"/><circle cx="134.121" cy="92.083" r="2.244" fill="#b3b3b3"/><circle cx="140.016" cy="92.083" r="2.244" fill="#b3b3b3"/><path fill="#b3b3b3" d="M394.11 88.864h5.939v1.32h-5.939zm0 2.508h5.939v1.32h-5.939zm0 2.551h5.939v1.32h-5.939zm-237.605-.894a2.1 2.1 0 1 1-2.717-2.76 2.072 2.072 0 0 1 1.521-.013l-.394.931 2.828-.3-1.755-2.237-.372.878a2.877 2.877 0 1 0 1.794 3.2l-.772-.142a2.1 2.1 0 0 1-.133.443zM120 103.483h287v1.001H120z"/><path fill="#c1c1c1" d="M317.495 199.941h32.688v3.998h-32.688zm-46.893 0h32.688v3.998h-32.688zm-46.893 0h32.688v3.998h-32.688zm-46.892 0h32.688v3.998h-32.688z"/><path fill="#f2f2f2" d="M393.174 189.924H133.826v3h81.239v18.442h1.219v-18.442h46.383v18.442h1.219v-18.442h45.984v18.442h1.219v-18.442h82.085v-3z"/><path fill="#06357a" d="M178.181 179.446h7.391v7.391h-7.391zm-9.302 0h7.391v7.391h-7.391zm-9.302 0h7.391v7.391h-7.391zm-9.684 0h7.391v7.391h-7.391z"/><path fill="#00af41" d="M140.359 179.446h7.391v7.391h-7.391z"/><path fill="#c1c1c1" d="M271.71 153.371h98.298v3.998H271.71zm0-7.875h98.298v3.998H271.71z"/><path fill="#eaeaea" d="M262.483 144.996h2v29.343h-2z"/><path fill="#c1c1c1" d="M199.539 157.682h55.717v3.998h-55.717zm0-6.135h55.717v3.998h-55.717z"/><path fill="#06357a" d="M199.539 145.496h55.717v3.998h-55.717z"/><path fill="#c1c1c1" d="M199.539 135.221h96.862v3.998h-96.862z"/><path fill="#eaeaea" d="M140.359 121.892h55.35v55.35h-55.35z"/><path fill="#32303a" d="M162.211 159.229h10.684v4.532h-10.684z"/><path fill="#f2ae75" d="M163.183 155.63h8.744v11.088h-8.744z"/><path fill="#f6ccb8" style="mix-blend-mode:multiply" d="M163.183 155.63v2.396l8.745 1.648v-4.044h-8.745z"/><path d="M178.883 177.242c-.184-6.627-1.269-15.045-5.47-16.624l-.325 1.22a5.709 5.709 0 0 1-5.426 4.245c-3.861 0-5.334-3.354-5.792-4.807l-.175-.659c-4.2 1.579-5.159 10-5.239 16.624z" fill="#fff"/><path fill="#0c6a93" d="M169.657 165.481l-.839 1.608h-2.554l-.816-1.608 2.105-1.72 2.104 1.72zm-.536 11.761l-.303-9.769h-2.554l-.297 9.769h3.154z"/><path fill="#e6e7e8" d="M167.553 163.761l-2.689 2.831-4.598-5.485 2.869-1.429 4.418 4.083zm4.42-4.082l-4.42 4.082 2.689 2.833 4.598-5.489-2.867-1.426z"/><path d="M189.375 177.242a534.429 534.429 0 0 0-1.621-9.867 3.884 3.884 0 0 0-1.075-2.136c-2.1-2.337-7.421-2.734-13.267-4.93l-4.184 16.933zm-23.499 0l-4.184-16.933c-5.846 2.2-11.167 2.593-13.267 4.93a3.884 3.884 0 0 0-1.075 2.136c-.531 3.1-1.095 6.409-1.62 9.867z" fill="#32303a"/><path fill="#4f4c4d" d="M160.76 167.016l-1.624 2.22 4.526 8.006h2.389l-3.84-18.013-3.68 1.893.143 4.178 2.086 1.716zm10.684 10.226l4.525-8.006-1.624-2.22 2.087-1.716.142-4.178-3.679-1.893-3.84 18.013h2.389z"/><path d="M177.269 142.706l.3-3.848c0-5.032-4.809-9.109-9.837-9.109s-9.837 4.077-9.837 9.109l.3 3.844a1.785 1.785 0 0 0-.747.379 1.814 1.814 0 0 0-.641 1.388v1.895a1.819 1.819 0 0 0 1.81 1.821c0 4.751 5.709 9.255 9.12 9.255s9.12-4.5 9.12-9.255a1.821 1.821 0 0 0 1.809-1.82v-1.895a1.818 1.818 0 0 0-1.397-1.764z" fill="#f2ae75"/><path d="M177.269 142.706l.3-3.848c0-5.032-4.809-9.109-9.837-9.109v12.934a37.985 37.985 0 0 0-2.186 6.923h2.186v7.833c3.414 0 9.121-4.5 9.121-9.255a1.821 1.821 0 0 0 1.809-1.82v-1.894a1.818 1.818 0 0 0-1.393-1.764z" fill="#f6ccb8" opacity=".8" style="mix-blend-mode:multiply"/><circle cx="163.537" cy="143.784" r="1.439" transform="rotate(-2 163.51 143.744)" fill="#f6ccb8" style="mix-blend-mode:multiply"/><circle cx="163.537" cy="143.42" r="1.439" transform="rotate(-2 163.488 143.4)" fill="#3c2417"/><circle cx="164.025" cy="142.971" r=".36" transform="rotate(-2 163.983 142.95)" fill="#fff"/><circle cx="171.916" cy="143.784" r="1.439" transform="rotate(-2 171.877 143.747)" fill="#f6ccb8" style="mix-blend-mode:multiply"/><circle cx="171.916" cy="143.42" r="1.439" transform="rotate(-2 171.883 143.403)" fill="#3c2417"/><circle cx="172.405" cy="142.971" r=".36" transform="rotate(-2 172.378 142.954)" fill="#fff"/><path d="M177.978 141.191h-1.972a5.827 5.827 0 0 0-2.716-.535c-2.03 0-3.408.389-4.115 1.149a2.683 2.683 0 0 0-2.788-.005c-.709-.756-2.085-1.144-4.11-1.144a5.827 5.827 0 0 0-2.716.535h-1.986v1.42l.652.229a3.285 3.285 0 0 0-.094.8c0 1.765.43 4.112 4.144 4.112 3.318 0 4.188-2.041 4.6-4.038a2.411 2.411 0 0 0 .028-.862 1.6 1.6 0 0 1 .87-.194 1.576 1.576 0 0 1 .883.2 2.416 2.416 0 0 0 .029.854c.414 2 1.284 4.038 4.6 4.038 3.715 0 4.144-2.347 4.144-4.112a3.28 3.28 0 0 0-.1-.8l.639-.224zm-11.813 2.372c-.43 2.075-1.256 3.457-3.888 3.457-3 0-3.416-1.626-3.416-3.383 0-.557 0-2.252 3.416-2.252 2.357 0 3.285.533 3.649.981a1.37 1.37 0 0 1 .239 1.197zm7.125 3.457c-2.633 0-3.458-1.382-3.888-3.457a1.37 1.37 0 0 1 .239-1.2c.364-.448 1.293-.981 3.649-.981 3.416 0 3.416 1.7 3.416 2.252-.001 1.76-.415 3.386-3.416 3.386z" fill="#32303a"/><path d="M172.126 151.857c-1.306-1.364-4.016-1.509-4.321-1.521h-.058c-.3.012-3.015.157-4.321 1.521a.726.726 0 0 0-.2.51 22.145 22.145 0 0 0 .362 3.744.727.727 0 0 0 .223.306 7.134 7.134 0 0 0 7.934 0 .728.728 0 0 0 .224-.307 22.188 22.188 0 0 0 .362-3.743.727.727 0 0 0-.205-.51zm-1.449 3.531a8.532 8.532 0 0 1-1.992.676v-.977a.911.911 0 0 0-1.822 0v.977a8.487 8.487 0 0 1-1.989-.676 17.734 17.734 0 0 1-.183-2.711 5.826 5.826 0 0 1 6.169 0 17.861 17.861 0 0 1-.183 2.711z" fill="#3c2415"/><path d="M167.776 126.6c-16.127.248-9.471 18.779-9.471 18.779s-.833-10.152 3.438-9.53a36.6 36.6 0 0 0 12.067 0c4.271-.621 3.438 9.53 3.438 9.53s6.652-18.527-9.472-18.779z" fill="#3c2417"/><path d="M133.289 116.222V212.6h260.422v-96.378zM391.711 210.6H135.289v-92.378h256.422z" fill="#06357a"/></g></svg>